<svg viewBox="0 0 48 48" xmlns="http://www.w3.org/2000/svg" xmlns:xlink="http://www.w3.org/1999/xlink" width="48.000000" height="48.000000" fill="none" customFrame="#000000">
	<defs>
		<clipPath id="clipPath_3">
			<rect width="48.000000" height="48.000000" x="0.000000" y="0.000000" fill="rgb(255,255,255)" />
		</clipPath>
	</defs>
	<g id="组合 248">
		<g id="svg 54" clip-path="url(#clipPath_3)" customFrame="url(#clipPath_3)">
			<rect id="svg 54" width="48.000000" height="48.000000" x="0.000000" y="0.000000" />
			<path id="矢量 471" d="M8.03418 34.8938L8.03418 36.9938C8.03418 38.625 8.69043 40.1859 9.86231 41.3391C11.0342 42.4922 12.6186 43.1391 14.2732 43.1391L33.7264 43.1391C35.3811 43.1391 36.9701 42.4922 38.1373 41.3391C39.3092 40.1859 39.9654 38.625 39.9654 36.9938L39.9654 34.9172L8.03418 34.8938L8.03418 34.8938Z" fill="rgb(233,102,107)" fill-rule="nonzero" />
			<path id="矢量 472" d="M39.9754 35.625L39.9754 17.6719C39.9707 17.0438 39.7176 16.4438 39.277 15.9984L28.8004 5.52188C28.3551 5.07656 27.7551 4.83281 27.127 4.83281L14.2691 4.83281C10.8238 4.83281 8.02539 7.62656 8.02539 11.0766L8.02539 35.625" fill="rgb(230,85,90)" fill-rule="nonzero" />
			<path id="矢量 473" d="M21.8199 39.8203L21.0043 39.8203L21.0043 40.9125L20.709 40.9125L20.709 38.2547L21.8434 38.2547C22.3824 38.2828 22.6777 38.5406 22.7293 39.0281C22.7105 39.5437 22.4059 39.8109 21.8199 39.8203ZM21.7684 38.5172L20.9996 38.5172L20.9996 39.5578L21.7684 39.5578C22.1902 39.5531 22.4059 39.3703 22.4105 39.0141C22.3965 38.6953 22.1809 38.5266 21.7684 38.5172L21.7684 38.5172ZM24.0652 40.9125L23.1559 40.9125L23.1559 38.2594L24.0934 38.2594C24.909 38.2875 25.3262 38.7234 25.3543 39.5766C25.3637 40.4812 24.9371 40.9266 24.0652 40.9125ZM24.0793 38.5125L23.4512 38.5125L23.4512 40.6594L24.0652 40.6594C24.7262 40.6594 25.0543 40.2984 25.0496 39.5812C25.0262 38.8922 24.7027 38.5406 24.0793 38.5125ZM27.609 38.5172L26.1137 38.5172L26.1137 39.3984L27.4121 39.3984L27.4168 39.6562L26.1137 39.6562L26.1137 40.9125L25.8184 40.9125L25.8184 38.2547L27.609 38.2547L27.609 38.5172L27.609 38.5172Z" fill="rgb(255,255,255)" fill-rule="nonzero" />
			<path id="矢量 474" d="M39.1924 15.9516L28.7205 5.475C28.3877 5.14687 27.9658 4.92656 27.5064 4.84219C27.4408 4.83281 27.3705 4.85156 27.3189 4.89375C27.2674 4.94062 27.2393 5.00156 27.2393 5.07187L27.2393 10.1344C27.2393 12.0703 28.0127 13.9312 29.3814 15.3C30.7549 16.6688 32.6158 17.4328 34.5518 17.4281L39.6143 17.4281C39.6846 17.4281 39.7502 17.4 39.7924 17.3484C39.8393 17.2969 39.858 17.2266 39.8533 17.1609C39.7596 16.7016 39.5299 16.2797 39.1924 15.9516L39.1924 15.9516Z" fill="rgb(209,59,70)" fill-rule="nonzero" />
			<path id="矢量 475" d="M34.7906 16.2656L39.4547 16.2656C39.3797 16.1531 39.2906 16.0453 39.1969 15.9516L28.7203 5.475C28.6219 5.37656 28.5188 5.29219 28.4062 5.21719L28.4062 9.88125C28.4062 13.4062 31.2656 16.2656 34.7906 16.2656Z" fill="rgb(255,168,168)" fill-rule="nonzero" />
			<path id="矢量 476" d="M29.9346 24.6422C28.9643 24.6422 27.9799 24.7781 27.0096 24.9656C25.8518 23.9016 24.8814 22.6453 24.1361 21.2578C24.9189 18.6563 24.9705 16.8938 24.3658 16.0594C24.0846 15.6844 23.6158 15.4547 23.1564 15.4547C22.5518 15.4031 21.9986 15.6891 21.7127 16.2C20.8736 17.5875 22.083 20.325 22.6408 21.4406C21.9893 23.4375 21.2064 25.3359 20.1846 27.1969C15.7783 29.0953 15.6846 30.2578 15.6846 30.675C15.6846 31.1859 15.9658 31.7016 16.4768 31.9313C16.6643 32.0813 16.9455 32.1188 17.1752 32.1188C18.333 32.1188 19.6783 30.8156 21.1221 28.2656C22.9361 27.525 24.7455 26.9156 26.6439 26.5031C27.6236 27.3375 28.8236 27.7969 30.0799 27.8906C30.8627 27.8906 32.4002 27.8906 32.4002 26.3156C32.4471 25.7109 32.1189 24.6844 29.9346 24.6422ZM17.2174 30.7219L17.0814 30.7641C17.4986 30.1594 18.0611 29.7 18.7502 29.4281C18.3799 30.0234 17.8689 30.4922 17.2174 30.7219ZM22.9361 16.8891C22.9736 16.7953 23.0064 16.7109 23.1283 16.725C23.1283 16.725 23.1986 16.7203 23.2783 16.875C23.4658 17.2172 23.4846 18.4594 23.2174 19.2563C22.8939 18.5203 22.7486 17.6813 22.9361 16.8891L22.9361 16.8891ZM25.5564 25.6688L25.4768 25.7063C24.4549 25.9359 23.3439 26.2594 22.3221 26.6344L22.1721 26.6906L22.2283 26.5781C22.7393 25.5563 23.1986 24.4922 23.6158 23.4234L23.658 23.3109L23.7049 23.3719C24.2158 24.1687 24.8627 24.9469 25.5705 25.6594L25.5564 25.6688ZM30.0799 26.5031C29.6205 26.4516 29.1518 26.3531 28.6924 26.1281C29.1096 26.0344 29.4846 26.0344 29.9018 26.0344C30.8299 26.0344 31.008 26.2641 31.008 26.4094C30.7268 26.5031 30.4033 26.5406 30.0799 26.5031Z" fill="rgb(255,255,255)" fill-rule="nonzero" />
		</g>
	</g>
</svg>
