<svg viewBox="0 0 48 48" xmlns="http://www.w3.org/2000/svg" xmlns:xlink="http://www.w3.org/1999/xlink" width="48.000000" height="48.000000" fill="none" customFrame="#000000">
	<defs>
		<clipPath id="clipPath_1">
			<rect width="48.000000" height="48.000000" x="0.000000" y="0.000000" fill="rgb(255,255,255)" />
		</clipPath>
	</defs>
	<g id="组合 245">
		<g id="svg 51" clip-path="url(#clipPath_1)" customFrame="url(#clipPath_1)">
			<rect id="svg 51" width="48.000000" height="48.000000" x="0.000000" y="0.000000" />
			<path id="矢量 456" d="M26.7605 24.3562C26.4887 24.2203 25.9918 24.15 25.2699 24.15L21.3652 24.15L21.3652 26.7469L25.2699 26.7469C25.9871 26.7469 26.484 26.6766 26.7605 26.5406C27.1684 26.3437 27.3746 25.9781 27.3746 25.4484C27.3746 24.9187 27.1684 24.5578 26.7605 24.3562Z" fill="rgb(252,74,73)" fill-rule="nonzero" />
			<path id="矢量 457" d="M39.277 15.9891L28.8004 5.51719C28.3551 5.07187 27.7551 4.82812 27.127 4.82812L14.2691 4.82812C10.8238 4.82812 8.02539 7.62187 8.02539 11.0719L8.02539 36.9188C8.02539 38.5734 8.68164 40.1625 9.85352 41.3344C11.0254 42.5063 12.6098 43.1625 14.2691 43.1625L33.7316 43.1625C35.3863 43.1625 36.9754 42.5063 38.1473 41.3344C39.3191 40.1625 39.9754 38.5781 39.9754 36.9188L39.9754 17.6672C39.966 17.0391 39.7176 16.4391 39.277 15.9891L39.277 15.9891ZM29.002 27.9938C28.2238 28.5516 27.0379 28.8281 25.4348 28.8281L21.366 28.8281L21.366 32.4797C21.366 32.6906 21.4129 32.85 21.5113 32.9625C21.6051 33.075 21.7785 33.1688 22.0223 33.2438L22.0223 33.5297L17.9723 33.5297L17.9723 33.2438C18.2113 33.1828 18.3801 33.0938 18.4785 32.9766C18.577 32.8594 18.6285 32.6953 18.6285 32.4844L18.6285 23.1234C18.6285 22.9125 18.5816 22.7531 18.4832 22.6453C18.3895 22.5375 18.216 22.4438 17.9723 22.3687L17.9723 22.0781L25.4348 22.0781C26.9113 22.0781 28.027 22.2984 28.777 22.7438C29.2129 23.0016 29.5551 23.3719 29.7988 23.85C30.0426 24.3281 30.1691 24.8625 30.1691 25.4531C30.1645 26.5922 29.7801 27.4359 29.002 27.9938Z" fill="rgb(252,74,73)" fill-rule="nonzero" />
			<path id="矢量 458" d="M39.2627 15.9422L28.7908 5.47031C28.458 5.14219 28.0361 4.92187 27.5768 4.8375C27.5111 4.82812 27.4408 4.84687 27.3893 4.88906C27.3377 4.93594 27.3096 4.99687 27.3096 5.06719L27.3096 10.1297C27.3096 12.0656 28.083 13.9266 29.4518 15.2953C30.8252 16.6641 32.6861 17.4281 34.6221 17.4234L39.6846 17.4234C39.7549 17.4234 39.8205 17.3953 39.8627 17.3437C39.9096 17.2922 39.9283 17.2219 39.9236 17.1562C39.8299 16.6969 39.6002 16.275 39.2627 15.9422L39.2627 15.9422Z" fill="rgb(249,23,22)" fill-rule="nonzero" />
			<path id="矢量 459" d="M34.8609 16.2609L39.525 16.2609C39.45 16.1484 39.3609 16.0406 39.2672 15.9469L28.7906 5.47031C28.6922 5.37188 28.5891 5.2875 28.4766 5.2125L28.4766 9.87656C28.4766 13.4016 31.3313 16.2609 34.8609 16.2609Z" fill="rgb(255,195,195)" fill-rule="nonzero" />
		</g>
	</g>
</svg>
