<svg viewBox="0 0 48 48" xmlns="http://www.w3.org/2000/svg" xmlns:xlink="http://www.w3.org/1999/xlink" width="48.000000" height="48.000000" fill="none" customFrame="#000000">
	<defs>
		<clipPath id="clipPath_6">
			<rect width="48.000000" height="48.000000" x="0.000000" y="0.000000" fill="rgb(255,255,255)" />
		</clipPath>
	</defs>
	<g id="组合 251">
		<g id="svg 57" clip-path="url(#clipPath_6)" customFrame="url(#clipPath_6)">
			<rect id="svg 57" width="48.000000" height="48.000000" x="0.000000" y="0.000000" />
			<path id="矢量 486" d="M8.03418 34.6594L8.03418 36.9938C8.03418 38.625 8.69043 40.1859 9.86231 41.3391C11.0342 42.4922 12.6186 43.1391 14.2732 43.1391L33.7264 43.1391C35.3811 43.1391 36.9701 42.4922 38.1373 41.3391C39.3092 40.1859 39.9654 38.625 39.9654 36.9938L39.9654 34.6828L8.03418 34.6594L8.03418 34.6594Z" fill="rgb(96,124,252)" fill-rule="nonzero" />
			<path id="矢量 487" d="M39.9754 35.625L39.9754 17.6719C39.9707 17.0438 39.7176 16.4438 39.277 15.9984L28.8004 5.52188C28.3551 5.07656 27.7551 4.83281 27.127 4.83281L14.2691 4.83281C10.8238 4.83281 8.02539 7.62656 8.02539 11.0766L8.02539 35.625" fill="rgb(78,109,252)" fill-rule="nonzero" />
			<path id="矢量 488" d="M32.4375 17.5969L29.625 30.4875L26.3438 30.4875L24.3516 22.2234C24.2344 21.7922 24.1547 21.3047 24.1172 20.7563C24.0797 21.3797 24 21.8719 23.8828 22.2234L21.7734 30.4875L18.375 30.4875L15.5625 17.5969L18.5531 17.5969L20.0156 26.2125C20.0531 26.4094 20.0953 26.7797 20.1328 27.3281C20.1328 27.2109 20.1516 27.3469 20.1937 27.7406L20.2547 27.7406C20.2922 27.2719 20.3719 26.7656 20.4891 26.2172L22.4812 17.6016L25.5891 17.6016L27.6984 26.3344C27.6984 26.4141 27.7172 26.5312 27.7594 26.6859C27.8391 27.1172 27.8766 27.4688 27.8766 27.7406L27.9375 27.7406C28.0172 27.1547 28.0734 26.6672 28.1156 26.2734L29.5219 17.6016L32.4375 17.6016L32.4375 17.5969Z" fill="rgb(255,255,255)" fill-rule="nonzero" />
			<path id="矢量 489" d="M21.6145 40.9125L20.7051 40.9125L20.7051 38.2594L21.6426 38.2594C22.4582 38.2875 22.8754 38.7234 22.9035 39.5766C22.9129 40.4812 22.4863 40.9266 21.6145 40.9125ZM21.6238 38.5125L21.0004 38.5125L21.0004 40.6594L21.6145 40.6594C22.2754 40.6594 22.6035 40.2984 22.5988 39.5812C22.5754 38.8922 22.252 38.5406 21.6238 38.5125ZM24.5066 40.95C23.7098 40.9031 23.2926 40.4625 23.2504 39.6234C23.2832 38.7234 23.7145 38.2547 24.5441 38.2172C25.3223 38.2687 25.7395 38.7281 25.7957 39.6C25.7582 40.4672 25.3316 40.9125 24.5066 40.95ZM24.5207 38.4797C23.9348 38.5266 23.616 38.9016 23.5598 39.6C23.5973 40.275 23.9066 40.6406 24.4879 40.6969C25.0973 40.6641 25.4207 40.2984 25.4582 39.6047C25.4113 38.9062 25.0973 38.5312 24.5207 38.4797L24.5207 38.4797ZM28.1395 39.975L28.4723 40.0687C28.3129 40.6453 27.9285 40.9406 27.3238 40.95C26.5738 40.8984 26.1754 40.4578 26.1332 39.6234C26.1707 38.7328 26.5785 38.2641 27.3519 38.2172C27.8582 38.2312 28.2145 38.4844 28.4207 38.9766L28.0926 39.0609C27.9285 38.6766 27.6754 38.4797 27.3332 38.4703C26.7941 38.5219 26.4988 38.8969 26.4473 39.5953C26.4801 40.2703 26.7707 40.6359 27.3098 40.6922C27.741 40.6828 28.0176 40.4438 28.1395 39.975L28.1395 39.975Z" fill="rgb(255,255,255)" fill-rule="nonzero" />
			<path id="矢量 490" d="M39.1924 15.9516L28.7205 5.475C28.3877 5.14687 27.9658 4.92656 27.5064 4.84219C27.4408 4.83281 27.3705 4.85156 27.3189 4.89375C27.2674 4.94062 27.2393 5.00156 27.2393 5.07187L27.2393 10.1344C27.2393 12.0703 28.0127 13.9312 29.3814 15.3C30.7549 16.6688 32.6158 17.4328 34.5518 17.4281L39.6143 17.4281C39.6846 17.4281 39.7502 17.4 39.7924 17.3484C39.8393 17.2969 39.858 17.2266 39.8533 17.1609C39.7596 16.7016 39.5299 16.2797 39.1924 15.9516L39.1924 15.9516Z" fill="rgb(43,80,216)" fill-rule="nonzero" />
			<path id="矢量 491" d="M34.7906 16.2656L39.4547 16.2656C39.3797 16.1531 39.2906 16.0453 39.1969 15.9516L28.7203 5.475C28.6219 5.37656 28.5188 5.29219 28.4062 5.21719L28.4062 9.88125C28.4062 13.4062 31.2656 16.2656 34.7906 16.2656Z" fill="rgb(186,198,255)" fill-rule="nonzero" />
		</g>
	</g>
</svg>
