<svg viewBox="0 0 48 48" xmlns="http://www.w3.org/2000/svg" xmlns:xlink="http://www.w3.org/1999/xlink" width="48.000000" height="48.000000" fill="none" customFrame="#000000">
	<defs>
		<clipPath id="clipPath_4">
			<rect width="48.000000" height="48.000000" x="0.000000" y="0.000000" fill="rgb(255,255,255)" />
		</clipPath>
	</defs>
	<g id="组合 249">
		<g id="svg 55" clip-path="url(#clipPath_4)" customFrame="url(#clipPath_4)">
			<rect id="svg 55" width="48.000000" height="48.000000" x="0.000000" y="0.000000" />
			<path id="矢量 477" d="M8.03418 34.9875L8.03418 36.9938C8.03418 38.625 8.69043 40.1859 9.86231 41.3391C11.0342 42.4922 12.6186 43.1391 14.2732 43.1391L33.7264 43.1391C35.3811 43.1391 36.9701 42.4922 38.1373 41.3391C39.3092 40.1859 39.9654 38.625 39.9654 36.9938L39.9654 35.0109L8.03418 34.9875L8.03418 34.9875Z" fill="rgb(111,173,73)" fill-rule="nonzero" />
			<path id="矢量 478" d="M39.9754 35.625L39.9754 17.6719C39.9707 17.0438 39.7176 16.4438 39.277 15.9984L28.8004 5.52188C28.3551 5.07656 27.7551 4.83281 27.127 4.83281L14.2691 4.83281C10.8238 4.83281 8.02539 7.62656 8.02539 11.0766L8.02539 35.625" fill="rgb(95,164,52)" fill-rule="nonzero" />
			<path id="矢量 479" d="M30.5902 30.3938L26.9574 30.3938L24.3793 26.2922C24.2246 26.0578 24.0465 25.7625 23.8496 25.4109C23.7324 25.6828 23.5777 25.9781 23.3809 26.2922L20.8027 30.3938L17.4043 30.3938L21.9746 23.9484L17.6387 17.5031L21.1543 17.5031L23.3246 21.3703C23.4418 21.525 23.5965 21.7828 23.7934 22.1344C23.873 22.2891 23.9293 22.4063 23.9715 22.4859C24.323 21.7828 24.5199 21.4125 24.5574 21.3703L26.6668 17.5031L30.1262 17.5031L25.8465 24.0094L30.5902 30.3938Z" fill="rgb(255,255,255)" fill-rule="nonzero" />
			<path id="矢量 480" d="M22.8656 40.9125L22.4859 40.9125L21.75 39.8578C21.7359 39.8391 21.7031 39.7875 21.6562 39.7031C21.6516 39.7125 21.6375 39.7359 21.6234 39.7641C21.5953 39.8109 21.5766 39.8438 21.5625 39.8578L20.7938 40.9078L20.4375 40.9078L21.4781 39.5391L20.5641 38.25L20.9109 38.25L21.5484 39.1828C21.5672 39.2156 21.6 39.2672 21.6422 39.3422C21.6562 39.3656 21.6656 39.3844 21.6703 39.3937C21.6938 39.3563 21.7313 39.2859 21.7922 39.1922L22.4344 38.2547L22.7859 38.2547L21.8484 39.5391L22.8656 40.9125L22.8656 40.9125ZM24.825 40.9125L23.1656 40.9125L23.1656 38.2547L23.4609 38.2547L23.4609 40.6547L24.825 40.6547L24.825 40.9125ZM25.1109 40.1344L25.4156 40.0406C25.4859 40.4906 25.7531 40.7062 26.2266 40.6922C26.6578 40.6828 26.8875 40.5187 26.9062 40.1953C26.9484 39.9469 26.7047 39.7688 26.1703 39.6656C25.5 39.5344 25.1859 39.2906 25.2188 38.925C25.2516 38.4703 25.5656 38.2359 26.1469 38.2125C26.7188 38.2125 27.0516 38.4516 27.15 38.9297L26.8313 39.0234C26.7422 38.6578 26.5172 38.475 26.1609 38.475C25.7531 38.4844 25.5375 38.6344 25.5234 38.925C25.5188 39.1406 25.7438 39.2953 26.1984 39.3844C26.9109 39.5203 27.2531 39.7969 27.2203 40.2094C27.1781 40.6875 26.85 40.9359 26.2406 40.9594C25.6078 40.9641 25.2281 40.6922 25.1109 40.1344L25.1109 40.1344Z" fill="rgb(255,255,255)" fill-rule="nonzero" />
			<path id="矢量 481" d="M39.1924 15.9516L28.7205 5.475C28.3877 5.14687 27.9658 4.92656 27.5064 4.84219C27.4408 4.83281 27.3705 4.85156 27.3189 4.89375C27.2674 4.94062 27.2393 5.00156 27.2393 5.07187L27.2393 10.1344C27.2393 12.0703 28.0127 13.9312 29.3814 15.3C30.7549 16.6688 32.6158 17.4328 34.5518 17.4281L39.6143 17.4281C39.6846 17.4281 39.7502 17.4 39.7924 17.3484C39.8393 17.2969 39.858 17.2266 39.8533 17.1609C39.7596 16.7016 39.5299 16.2797 39.1924 15.9516L39.1924 15.9516Z" fill="rgb(69,127,32)" fill-rule="nonzero" />
			<path id="矢量 482" d="M34.7906 16.2656L39.4547 16.2656C39.3797 16.1531 39.2906 16.0453 39.1969 15.9516L28.7203 5.475C28.6219 5.37656 28.5188 5.29219 28.4062 5.21719L28.4062 9.88125C28.4062 13.4062 31.2656 16.2656 34.7906 16.2656Z" fill="rgb(152,208,116)" fill-rule="nonzero" />
		</g>
	</g>
</svg>
