<svg viewBox="0 0 48 48" xmlns="http://www.w3.org/2000/svg" xmlns:xlink="http://www.w3.org/1999/xlink" width="48.000000" height="48.000000" fill="none" customFrame="#000000">
	<defs>
		<clipPath id="clipPath_5">
			<rect width="48.000000" height="48.000000" x="0.000000" y="0.000000" fill="rgb(255,255,255)" />
		</clipPath>
	</defs>
	<g id="组合 250">
		<g id="svg 56" clip-path="url(#clipPath_5)" customFrame="url(#clipPath_5)">
			<rect id="svg 56" width="48.000000" height="48.000000" x="0.000000" y="0.000000" />
			<path id="矢量 483" d="M39.277 15.9891L28.8004 5.51719C28.3551 5.07187 27.7551 4.82812 27.127 4.82812L14.2691 4.82812C10.8238 4.82812 8.02539 7.62187 8.02539 11.0719L8.02539 36.9188C8.02539 38.5734 8.68164 40.1625 9.85352 41.3344C11.0254 42.5063 12.6098 43.1625 14.2691 43.1625L33.7316 43.1625C35.3863 43.1625 36.9754 42.5063 38.1473 41.3344C39.3191 40.1625 39.9754 38.5781 39.9754 36.9188L39.9754 17.6672C39.966 17.0391 39.7176 16.4391 39.277 15.9891L39.277 15.9891ZM29.8223 25.0266L29.5457 25.0266C29.4754 24.7828 29.3863 24.6141 29.2738 24.5203C29.1613 24.4219 28.9973 24.375 28.777 24.375L25.402 24.375L25.402 32.6953C25.402 32.9063 25.4488 33.0703 25.5473 33.1781C25.641 33.2906 25.8145 33.3844 26.0582 33.4594L26.0582 33.7453L22.0082 33.7453L22.0082 33.4594C22.2473 33.3984 22.416 33.3094 22.5145 33.1922C22.6129 33.075 22.6645 32.9109 22.6645 32.7L22.6645 24.3703L19.2895 24.3703C19.0691 24.3703 18.9051 24.4172 18.7926 24.5156C18.6801 24.6141 18.591 24.7828 18.5207 25.0219L18.2441 25.0219L18.2441 21.6375L18.5207 21.6375C18.5816 21.8766 18.6707 22.0453 18.7832 22.1437C18.8957 22.2422 19.0598 22.2937 19.2801 22.2937L28.7816 22.2937C29.002 22.2937 29.166 22.2469 29.2785 22.1484C29.391 22.0547 29.4801 21.8812 29.5504 21.6375L29.827 21.6375L29.827 25.0266L29.8223 25.0266Z" fill="rgb(164,164,165)" fill-rule="nonzero" />
			<path id="矢量 484" d="M39.2627 15.9422L28.7908 5.47031C28.458 5.14219 28.0361 4.92187 27.5768 4.8375C27.5111 4.82812 27.4408 4.84687 27.3893 4.88906C27.3377 4.93594 27.3096 4.99687 27.3096 5.06719L27.3096 10.1297C27.3096 12.0656 28.083 13.9266 29.4518 15.2953C30.8252 16.6641 32.6861 17.4281 34.6221 17.4234L39.6846 17.4234C39.7549 17.4234 39.8205 17.3953 39.8627 17.3437C39.9096 17.2922 39.9283 17.2219 39.9236 17.1562C39.8299 16.6969 39.6002 16.275 39.2627 15.9422L39.2627 15.9422Z" fill="rgb(102,104,107)" fill-rule="nonzero" />
			<path id="矢量 485" d="M34.8609 16.2609L39.525 16.2609C39.45 16.1484 39.3609 16.0406 39.2672 15.9469L28.7906 5.47031C28.6922 5.37188 28.5891 5.2875 28.4766 5.2125L28.4766 9.87656C28.4766 13.4016 31.3313 16.2609 34.8609 16.2609Z" fill="rgb(225,230,233)" fill-rule="nonzero" />
		</g>
	</g>
</svg>
