<svg viewBox="0 0 48 48" xmlns="http://www.w3.org/2000/svg" xmlns:xlink="http://www.w3.org/1999/xlink" width="48.000000" height="48.000000" fill="none" customFrame="#000000">
	<defs>
		<clipPath id="clipPath_2">
			<rect width="48.000000" height="48.000000" x="0.000000" y="0.000000" fill="rgb(255,255,255)" />
		</clipPath>
	</defs>
	<g id="组合 246">
		<g id="svg 52" clip-path="url(#clipPath_2)" customFrame="url(#clipPath_2)">
			<rect id="svg 52" width="48.000000" height="48.000000" x="0.000000" y="0.000000" />
			<path id="矢量 460" d="M8.03418 35.0813L8.03418 36.9938C8.03418 38.625 8.69043 40.1859 9.86231 41.3391C11.0342 42.4922 12.6186 43.1391 14.2732 43.1391L33.7264 43.1391C35.3811 43.1391 36.9701 42.4922 38.1373 41.3391C39.3092 40.1859 39.9654 38.625 39.9654 36.9938L39.9654 35.1047L8.03418 35.0813L8.03418 35.0813Z" fill="rgb(58,146,241)" fill-rule="nonzero" />
			<path id="矢量 461" d="M39.9988 35.625L39.9988 17.6719C39.9941 17.0438 39.741 16.4438 39.3004 15.9984L28.8285 5.52188C28.3832 5.07656 27.7832 4.83281 27.1551 4.83281L14.2926 4.83281C10.8473 4.83281 8.04883 7.62656 8.04883 11.0766L8.04883 35.625" fill="rgb(58,153,255)" fill-rule="nonzero" />
			<path id="矢量 462" d="M20.7705 38.2594L19.6971 40.9172L19.3924 40.9172L18.333 38.2594L18.6518 38.2594L19.4674 40.3734C19.5002 40.4812 19.5283 40.5797 19.5518 40.6781L19.5564 40.6781C19.5799 40.5844 19.608 40.4812 19.6455 40.3734L20.4471 38.2594L20.7705 38.2594L20.7705 38.2594ZM21.1221 40.9125L21.1221 38.2547L21.4174 38.2547L21.4174 40.9125L21.1221 40.9125ZM22.9361 40.9125L22.0268 40.9125L22.0268 38.2594L22.9643 38.2594C23.7799 38.2875 24.1971 38.7234 24.2252 39.5766C24.2393 40.4812 23.808 40.9266 22.9361 40.9125ZM22.9502 38.5125L22.3221 38.5125L22.3221 40.6594L22.9361 40.6594C23.5971 40.6594 23.9252 40.2984 23.9205 39.5812C23.8971 38.8922 23.5736 38.5406 22.9502 38.5125ZM24.9846 40.6547L26.6533 40.6547L26.6533 40.9172L24.6846 40.9172L24.6846 38.2594L26.5877 38.2594L26.5877 38.5172L24.9846 38.5172L24.9846 39.4078L26.4893 39.4078L26.4893 39.6656L24.9846 39.6656L24.9846 40.6547L24.9846 40.6547ZM28.2846 40.95C27.4877 40.9031 27.0705 40.4625 27.0283 39.6234C27.0611 38.7234 27.4924 38.2547 28.3221 38.2172C29.1002 38.2687 29.5174 38.7281 29.5736 39.6C29.5361 40.4672 29.1049 40.9125 28.2846 40.95ZM28.2986 38.4797C27.7127 38.5266 27.3939 38.9016 27.3377 39.6C27.3752 40.275 27.6846 40.6406 28.2658 40.6969C28.8752 40.6641 29.1986 40.2984 29.2361 39.6047C29.1846 38.9062 28.8752 38.5312 28.2986 38.4797L28.2986 38.4797Z" fill="rgb(255,255,255)" fill-rule="nonzero" />
			<path id="矢量 463" d="M39.1924 15.9516L28.7205 5.475C28.3877 5.14687 27.9658 4.92656 27.5064 4.84219C27.4408 4.83281 27.3705 4.85156 27.3189 4.89375C27.2674 4.94062 27.2393 5.00156 27.2393 5.07187L27.2393 10.1344C27.2393 12.0703 28.0127 13.9312 29.3814 15.3C30.7549 16.6688 32.6158 17.4328 34.5518 17.4281L39.6143 17.4281C39.6846 17.4281 39.7502 17.4 39.7924 17.3484C39.8393 17.2969 39.858 17.2266 39.8533 17.1609C39.7596 16.7016 39.5299 16.2797 39.1924 15.9516L39.1924 15.9516Z" fill="rgb(27,131,224)" fill-rule="nonzero" />
			<path id="矢量 464" d="M34.7906 16.2656L39.4547 16.2656C39.3797 16.1531 39.2906 16.0453 39.1969 15.9516L28.7203 5.475C28.6219 5.37656 28.5188 5.29219 28.4062 5.21719L28.4062 9.88125C28.4062 13.4062 31.2656 16.2656 34.7906 16.2656Z" fill="rgb(141,196,255)" fill-rule="nonzero" />
			<path id="矢量 465" d="M16.5137 23.7562C16.5137 25.3995 17.0339 27.0005 17.9998 28.33C18.9656 29.6594 20.3276 30.6489 21.8904 31.1567C23.4532 31.6644 25.1366 31.6644 26.6995 31.1567C28.2623 30.6489 29.6242 29.6594 30.5901 28.33C31.556 27.0005 32.0762 25.3995 32.0762 23.7562C32.0762 22.113 31.556 20.512 30.5901 19.1825C29.6242 17.8531 28.2623 16.8636 26.6995 16.3558C25.1366 15.8481 23.4532 15.8481 21.8904 16.3558C20.3276 16.8636 18.9656 17.8531 17.9998 19.1825C17.0339 20.512 16.5137 22.113 16.5137 23.7562Z" fill="rgb(102,178,247)" fill-rule="nonzero" />
			<path id="矢量 466" d="M28.3082 23.0438C26.6535 21.7781 24.9941 20.5172 23.3395 19.2516C22.7488 18.8016 21.9004 19.2234 21.9004 19.9641L21.9004 27.5484C21.9004 28.2891 22.7488 28.7109 23.3395 28.2609C24.9941 26.9953 26.6535 25.7344 28.3082 24.4688C28.777 24.1078 28.777 23.4 28.3082 23.0438Z" fill="rgb(255,255,255)" fill-rule="nonzero" />
		</g>
	</g>
</svg>
